<svg id="Layer_1" data-name="Layer 1" xmlns="http://www.w3.org/2000/svg" viewBox="0 0 1500 502.81"><defs><style>.cls-1{fill:#ee7e22;}.cls-2{fill:#0f4c89;}.cls-3{fill:#fff;}.cls-4{fill:#333;}</style></defs><rect class="cls-1" x="49.27" y="54.98" width="421.09" height="364.87"/><rect class="cls-2" x="465.61" y="54.98" width="930.94" height="364.87"/><path class="cls-2" d="M144.92,124.25V355.13q0,16-7.55,24.23a25.31,25.31,0,0,1-19.34,8.2q-11.73,0-19-8.41c-4.9-5.58-7.32-13.58-7.32-24V125.82c0-10.53,2.42-18.48,7.32-23.82s11.22-8,19-8,14.28,2.67,19.34,8S144.92,114.77,144.92,124.25Z"/><path class="cls-2" d="M211.31,94h77.43c20.15,0,37.4,1.9,51.82,5.59a96,96,0,0,1,39.26,21q45.81,39.21,45.81,119.25A234.77,234.77,0,0,1,421,288.13a141.08,141.08,0,0,1-14.24,39.29,119.8,119.8,0,0,1-24.56,31.31,102.3,102.3,0,0,1-25.81,17,119.57,119.57,0,0,1-30.13,9,228.81,228.81,0,0,1-36.33,2.62h-77.4c-10.84,0-19-1.64-24.44-4.92a22.85,22.85,0,0,1-10.72-13.79c-1.69-6-2.47-13.65-2.47-23.11V130.44q0-19.23,8.59-27.83T211.31,94Zm23,47V340.14h45.1c9.83,0,17.6-.27,23.19-.77a75.14,75.14,0,0,0,17.39-4,47.2,47.2,0,0,0,15.61-9q29.85-25.23,29.84-86.85,0-43.44-13.14-65T320,147q-19.24-5.89-46.42-5.9Z"/><path class="cls-3" d="M505,387.53V94h95.37l29.35,174.75L659.07,94H754.7v293.5H692V196.69L659.07,387.53h-58.7L567.45,196.69V387.53Z"/><path class="cls-3" d="M783,387.53V94h128.5v51.43H845.37v51.23h66.09v51.48H845.37v88h66.09v51.4Z"/><path class="cls-3" d="M1077.21,245.45l18.47,142.08h-64.36l-14.49-128.48H998.39V387.53H936V94h88.19q34.75,0,54,13.86t19.29,42.22v46.58c0,10.16-.55,18.06-1.72,23.68s-2.51,9.71-4.15,12.27a22.47,22.47,0,0,1-6,6.52C1083.21,241,1080.42,243,1077.21,245.45Zm-78.82-37.84c9.64,0,16.79-.32,21.42-1.05a18.72,18.72,0,0,0,11.16-5.41c2.79-3,4.12-7.58,4.12-13.89V168.53c0-6.81-1.06-11.82-3.24-15.06s-5.73-5.33-10.82-6.42-12.66-1.59-22.64-1.59Z"/><path class="cls-3" d="M1125.74,387.53V94h62.34v293.5Z"/><path class="cls-3" d="M1256.1,387.53V145.46h-46.6V94H1365v51.43h-46.58V387.53Z"/><path class="cls-2" d="M1410.7,54.7V19H1398V14.59h30.45V19H1415.7V54.7Z"/><path class="cls-2" d="M1469.33,54.7v-33l-13.69,33h-2l-13.7-33v33h-5V14.59h7.18l12.46,30.16,12.48-30.16h7.2V54.7Z"/><path class="cls-4" d="M67.26,473.56,75,440.23H85.35l-13.26,46H62.43l-13.16-46H59.56Z"/><path class="cls-4" d="M123.62,466.3H109.17v12.19h17.11v7.7H99.89v-46h26.32V448h-17v10.86h14.45Z"/><path class="cls-4" d="M155.75,469.4h-4.61v16.79h-9.28v-46h14.8q7,0,10.78,3.62t3.8,10.27q0,9.15-6.66,12.82l8,18.81v.44h-10Zm-4.61-7.74h5.27a4.86,4.86,0,0,0,4.16-1.84,8,8,0,0,0,1.39-4.94q0-6.92-5.39-6.92h-5.43Z"/><path class="cls-4" d="M197.53,486.19h-9.28v-46h9.28Z"/><path class="cls-4" d="M239.24,467.44H224.82v18.75h-9.28v-46H241V448H224.82v11.78h14.42Z"/><path class="cls-4" d="M270.36,460.87l6.91-20.64h10.1l-12.31,29.29v16.67h-9.41V469.52l-12.34-29.29h10.1Z"/><path class="cls-4" d="M348.83,476.78H336.18l-2.47,9.41H323.9l14.36-46h8.49l14.46,46H351.3Zm-10.63-7.73h8.58l-4.29-16.38Z"/><path class="cls-4" d="M407.85,486.19h-9.28L385,456.05v30.14h-9.28v-46H385l13.6,30.18V440.23h9.25Z"/><path class="cls-4" d="M438.49,460.87l6.91-20.64h10.1l-12.31,29.29v16.67h-9.41V469.52l-12.34-29.29h10.1Z"/><path class="cls-4" d="M501.35,467.35q0,9.24-4.37,14.36t-12.14,5.11q-7.72,0-12.15-5.06t-4.48-14.19v-7.86q0-9.48,4.39-14.79t12.18-5.32q7.67,0,12.09,5.22t4.48,14.67ZM492,459.64q0-6.21-1.77-9.24a6.52,6.52,0,0,0-10.95-.12q-1.77,2.93-1.83,8.89v8.18q0,6,1.8,8.88a6.09,6.09,0,0,0,5.55,2.86,5.94,5.94,0,0,0,5.4-2.8q1.77-2.79,1.8-8.66Z"/><path class="cls-4" d="M550.36,486.19h-9.28l-13.57-30.14v30.14h-9.28v-46h9.28l13.6,30.18V440.23h9.25Z"/><path class="cls-4" d="M591.77,466.3H577.31v12.19h17.11v7.7H568v-46h26.32V448h-17v10.86h14.46Z"/><path class="cls-4" d="M612.18,497.78l-4.77-2.5,1.2-2.24a16.24,16.24,0,0,0,2.08-7.51v-7.1h7.77l0,6.34a16.85,16.85,0,0,1-1.71,6.94A17.9,17.9,0,0,1,612.18,497.78Z"/><path class="cls-4" d="M683.11,476.78H670.45L668,486.19h-9.82l14.37-46H681l14.45,46h-9.91Zm-10.64-7.73h8.59l-4.3-16.38Z"/><path class="cls-4" d="M742.13,486.19h-9.29l-13.57-30.14v30.14H710v-46h9.28l13.61,30.18V440.23h9.25Z"/><path class="cls-4" d="M772.76,460.87l6.92-20.64h10.1l-12.31,29.29v16.67h-9.41V469.52l-12.34-29.29h10.1Z"/><path class="cls-4" d="M834.49,448H823.13v38.23h-9.31V448H802.64v-7.73h31.85Z"/><path class="cls-4" d="M859.73,486.19h-9.28v-46h9.28Z"/><path class="cls-4" d="M889.87,440.23l8.68,33.24,8.65-33.24h12.12v46H910V473.75l.85-19.16-9.19,31.6h-6.31l-9.19-31.6.86,19.16v12.44h-9.29v-46Z"/><path class="cls-4" d="M960.72,466.3H946.26v12.19h17.11v7.7H937v-46h26.33V448h-17v10.86h14.46Z"/><path class="cls-4" d="M981.13,497.78l-4.77-2.5,1.2-2.24a16.26,16.26,0,0,0,2.09-7.51v-7.1h7.76l0,6.34a16.83,16.83,0,0,1-1.7,6.94A17.93,17.93,0,0,1,981.13,497.78Z"/><path class="cls-4" d="M1052.06,476.78h-12.65l-2.47,9.41h-9.81l14.36-46H1050l14.46,46h-9.91Zm-10.63-7.73H1050l-4.29-16.38Z"/><path class="cls-4" d="M1111.08,486.19h-9.28l-13.57-30.14v30.14h-9.29v-46h9.29l13.6,30.18V440.23h9.25Z"/><path class="cls-4" d="M1141.72,460.87l6.91-20.64h10.1l-12.31,29.29v16.67H1137V469.52l-12.34-29.29h10.1Z"/><path class="cls-4" d="M1203.54,469.11l4.36-28.88h9.18l-8.17,46h-9.31l-5.37-27.08-5.3,27.08h-9.35l-8.2-46h9.24l4.33,28.85,5.4-28.85h7.79Z"/><path class="cls-4" d="M1264.55,486.19h-9.25V466.53h-13.7v19.66h-9.28v-46h9.28v18.59h13.7V440.23h9.25Z"/><path class="cls-4" d="M1306,466.3h-14.46v12.19h17.11v7.7h-26.39v-46h26.33V448h-17v10.86H1306Z"/><path class="cls-4" d="M1338.07,469.4h-4.61v16.79h-9.28v-46H1339q7,0,10.77,3.62t3.81,10.27q0,9.15-6.66,12.82l8,18.81v.44h-10Zm-4.61-7.74h5.27a4.89,4.89,0,0,0,4.17-1.84,8.07,8.07,0,0,0,1.39-4.94q0-6.92-5.4-6.92h-5.43Z"/><path class="cls-4" d="M1393.9,466.3h-14.46v12.19h17.11v7.7h-26.39v-46h26.33V448h-17v10.86h14.46Z"/></svg>